<mxfile host="Electron" modified="2024-02-16T07:53:33.648Z" agent="Mozilla/5.0 (Windows NT 10.0; Win64; x64) AppleWebKit/537.36 (KHTML, like Gecko) draw.io/21.2.8 Chrome/112.0.5615.165 Electron/24.2.0 Safari/537.36" etag="3ViU6T4Cz3wkjB_Rk4Zu" version="21.2.8" type="device">
  <diagram name="Page-1" id="2XWkQP5S-hDbL94sL5Vg">
    <mxGraphModel dx="2058" dy="1180" grid="1" gridSize="10" guides="1" tooltips="1" connect="1" arrows="1" fold="1" page="1" pageScale="1" pageWidth="3300" pageHeight="4681" background="#999999" math="0" shadow="0">
      <root>
        <mxCell id="0" />
        <mxCell id="1" parent="0" />
        <mxCell id="APLwThIm-aDqV8bCMrbt-1" value="Pendulum Swing" style="rounded=0;whiteSpace=wrap;html=1;fontSize=25;fillColor=#dae8fc;strokeColor=#6c8ebf;" parent="1" vertex="1">
          <mxGeometry x="1298" y="140" width="650" height="60" as="geometry" />
        </mxCell>
        <mxCell id="RrdhFKE-We0pcyIrAuzc-1" value="" style="shape=image;verticalLabelPosition=bottom;labelBackgroundColor=default;verticalAlign=top;aspect=fixed;imageAspect=0;image=data:image/png,iVBORw0KGgoAAAANSUhEUgAAAaEAAAHDCAYAAACNlKWTAAAAAXNSR0IArs4c6QAAAARnQU1BAACxjwv8YQUAAAAJcEhZcwAADsMAAA7DAcdvqGQAAB/vSURBVHhe7d0LkFxVncfxf89kEkwkD0hYXBEjSSC8RbFQQSUqlAuFrmvpVqlFKaDiq3xsba2yLlIuj63yWYqPWstitQAXX6Wyq1uigAI+oFgLF1AJgaBggCRFXkAmk2T2/s85t/v2Y7rvzJzp/318PzO37znn3r73ds/0/c05/ZjG8SecMDk5KVPquTBp632VPhuaQr99o2D4YWEmGo1QQNHl+1ENXsmt0WNjjV5txx1/Qs8zS/7wSdqqdG7KcWOqdHPLq4w/hVyPcNRItN8I46D3u+8RMO6iR3umrSuEooYPJ/Q+It3yId6B9f1ZYTa6T0FzKMrOhnrEhZLrlg8IvF6B5Ju6r6dh1AyhKcfkugKoR/h0rWMh0hHk2Iz9bS2yId07Vf0h9H98l1Qlb9RA0W51rg3Z3sdu7x0h0xlGvdZRU4dQj2DJs067/kudHKvkEWkzEUU4osreN8D0dZ++ZijKhqIdzdDkOuJZruSWTDOMGsced3z3OaojXPqHTygls461hizH3uOsUjCRjrhgN7x8P4fqaT+VzLFoOxvqUc9arqONt9KccHtuXTi+2n5M2TDKLu8OoY6A6c6ftCHMk1nHKhlTL2mKs0pEZTzmIhnSLa/vHZw+jkukXAcc7WhzbWh4983cHY6/krtsXTidr4bLBpFyzwllQ6i9x9MRQB3hFL6DznpsObYcZ5WIBuwt0sEM9zbFUs6jRi/tJ5kyGHjEuW5SsW53x7l+CnN3zNlwaRWzdV9WXUHkQqgtYFR7AHX2flrV7uu16aj2kmOVfLIHPIVo+4pimHdOHAU7HNRM67Q1SwM3FG1PUeQ6mkgrzWwzrQZXCoHTFTbuonuZC6Epe0BtIZOU/Lcrt5/zO+upno3t4qySU9GOp0iGeKuGtKtq/pzSh25BRDuYQt2qKHLdongrDTSXx+NaQsCoNGTCLL1oW6+5zrHHHpfJnMzDtiOAMivJvLExWbRoocwfmy/zF8yX0dHRGT/is3spjaEdcpwdlfAeBrr4U1cM8bbU15B2E1OIjelLrrZv3z4ZHx+XPXsm5KmnnpK9ExNJu99eGjjNy9CuGsckIaSFvAF04IEHypKlS2Trtl3y9O49sjvZ4cTE3rBCP62dtp8Ws+1AL/yOAEU3Nm9UDlgwJs9IpuUHHSjbtm2XnTt2NANnqiAKIdQeNL0CSENq+fLlScuIbNryRJJ2eYIny+/QI4QwHfyOAGUyf2xUnrViqSS5JI8/vjm0prkTwsddNJJEGRhAOp+UxUkPSAPoob9snkEAddLdpxMwFX5HgDLaM7EvyYotsnefuNEzP9LWypTmZdIw4hs7JI3pyjofmzfPDcFpD6g/ThgAANWQTZu3ydIlS1yGZDMlRJCT9IQ8TSrfnM61zc8XPXORew6ofw8oDaBeQUQ4Ybr4nQHKbs/EXtnyxE5ZuGihq6eZ0gyk5NKHULpEpQsza+ur4PRFCPlxAgEANOTp8T0uQ9KcSYfmfNaEEAplt5Irpw2hri/D1lfBTW2q3k86AQDqaPf4XlmwYEHIlhAuySytN44++pjQrL0f39hWT+Yrn7tS7rn/z0lZA8UvbdeQxQcukrF5zdG93Cb27pMdO58KNSCLP2CAKjh29bNl40Mbk1Kj+Qq55nxtEkJabH/1Qlr385Urnyv33v+Iq3eHkD9RfPaTl8uq1atdeSrph9k98uiW5n6e3LFVPvyPH5WRkVHfADQRQkAVHLP6r2XjxocyAeQf2zprf04ozZdMALVoOVtvt3TJYjl27Zq+0zFHrXbTGa94sZx5up9WLD+4Yz8AUA7/+vGPyp/W3yWPPHB3z0mX6TpF88sb/0teesqLQq2bLrvtZ9eHWizdnRyNFN8TShpcU8c8XdH3hB525Xatv1S/8bUvyWGHrZLv37JeGiOTfhrVab+cdeJqOfSvlsiuXU+6dRctWiTfve1BV37egU/JW9/2DhkdnefqFm698Udy1Teula/9x9WhpbdHHrhHnn3EsaEWn24/dfEnrhh4PCm9nh7/xy65LLRUBT0hFJuGzBlnvUE2PfZYaGl30LJl8oufXi+HrzkxtBSDhsyVn/s3ed8HPyK//M0dodXrt2ymfE8oHY5Le0FJOZlP/0mcpvYThNYajVF5cPsu2bhzpzz01A758/h2eXhim0xM7E8CLZnCV2p0/r5Qwt133iZ/9/fnupDT6bSXvjgsGUzXr14AAcWnn5upAbRjx86e08aH/uQ/W7NgNFw0ZDRssj2iuQigQWYYQt1/oe7b78NlxcELpDF/r2zfu0M2794qjz3tP7Kh0coe54Blu2Xhcl6QkPWbO+4MJZG3v/N9oVRl7k+XHhOAudYZRBYBpGbRE2qXZszvH3tYHty2SbbtfUKelp2yp7HLtU+Gc4vvgIksWrpLFj7TLxtEh5suveSf3Vyn6797rV+QOP9tb22265TSdbLX0SG31CkvemHPdqU9El2e6qwr3Wf2etm67lP3rXXdvpazx6jLe9m2fXvXsXTuR7d11b9fGWqt4bvsMWo5e7uz62s5255ef+aywZFOefVbdzrbATBT2SCyCCCVhFD780DNerjU9rTYT3raeDoJnbFnTMjYARMyb8EeGUsmJ9lGGkBq7YrnyOqlR4TaYCce74epdHrBSSe6E7SeeD/0/nc32/V5lGxAvf3cNzeX6UdH6HXU9677hltX2/W5lOetfK5rj0WPT7er29dyehy6z78956ywVrvTXnmWrL//gbbg0OeE9LhTepxrVvv7TG/L//72LlfudPrLT3X70+G9M1+9zrXp+lrWdp1mb6qgyBMgsdZBlfR6Yr/XhBLSDHE5onmSBorPmhn0hPqfHFz4JNPYAp0yIZRcLd21Wr1slZvyOucNbw4lkZ/89Cb3nMk5Z79Gli1bmvxi+r/uP3HxR9sCRYMg9eDGh9wyPRlrOX3SX+daj0nDId2+bjs9Dm3T452KDsFpQGjQpGGq19eejR73HXf+1rVp+GqYff/69p5T6h/+6V/cXIf3nnhim1tf7y+931KzG+4bFBD9lhMu6O3ZRxyXa0I82SG47NDcMEUbjkv5APLhM1/n830I+VfatRJwz8SEPP307lCfvkf+ssnN9YSf/nWv03EvPNW196Mn5iLTXpH2oJQGjfYCNXRu/eWvXW9Jw1cDNQ26vNL7bDh6hQ0BBBRF53NAnc8RDUu8EErOL+PjT8spy1fJycvWyAsWHynPX3S0nPCMY127X8WfhDSP9u/fL/uSKa/0uRT9q16Hla7/7/9xk56s0+dD8rj7nt+3XUd7GNnekz43oyd5pct69Vx0G9nrTDXElpceS/a5G91vGpQaNLovPQ4tf+WrV7nhNj3O6dAAyh5ndn9zR3/e2QmoFv1vovoy7Kkceughbp2imepFCBZBNI0Q6n8i0Tw5+qjnyLvWvVre9Yoz5R0v+xu54GWvlfNPfZ2sPeowWbhwkRxyyAo56OCDkt7RmAuhkZH8JybtDeiQmz6fo8NbOtSkk5a1LR2SG3Ry7byOPl+THY7TZdqWLuvVa9JtaA8s3eds6faWJ/dLuj0dVsz26DRw0uPQdfV5opt/cZur56Uv4dbbGeuYAYh8/er/dO8D6vXclU6333KDW6dI9P05n7z84q4ASqVB9KkrPh5a5lZj7dFHh5GyzAsTXCHMk4uVK1fKvRvSj+3p7YPvf7ec9PwTQq3byMiIm/SvguwnJPzurv+TT3728zLS582qetKM82Q6Utr7+tpXPp9r+LIbvRqgzDSIsufhuXbMqvBm1eTU4UbE9I2q7jSSzGOFkG5kcn8SMKGelx5HY2TU3SlTIYTi05d+a+8q+4KP/Kb+WQFAp34hFO05IQ0R7c3ox+9MZ9Lr9AsgxKE9n3QoLh2OI4AAWIvWE0JdEEIApqdvT8gHjkZO0BFAzXZUgP7UOycAmHshWlqZEgrR3yeEopoqcAgiAHYIIUwDgQUgLkKoFgaFhy4nYAAMHyGEjDSMppoAIC5CqPIIDwDFRQgBAMw0jlp7tH/lXPO12vqy7PaXaD9v5Uq54YafuMUAAEzHGWecKQ9u3OjHZdx7hNy7hVyZnhAAwAwhBAAw40MoHYpzA3Fu1iq7y3Q5AADT49IkPL3j8iRTpicEADBDCAEAzBBCAAAzhBAAwAwhBAAwQwgBAMwQQgAAM4QQAMAMIQQAMONCqPl5CK6Q/dSEZJbMm8sBAJiBNEdameIL9IQAAGYIIQCAGUIIAGCGEAIAmCGEAABmCCEAgBlCCABghhACAJgZ6fzX3q6a/utVX3HfAADMiA+UkCla9LmiNXpCAAAzhBAAwAwhBAAwQwgBAMwQQgAAM4QQAMAMIQQAMEMIAQDMEEIAADMj4f2r/q2r/qKpRxMAANOXZEk2Tnx5kp4QAMAOIQQAMEMIAQDMEEIAADOEEADADCEEADBDCAEAzBBCAAAzzRDSNw75/7wa/rW3b3ElAABmo5krSdC0yvSEAACGCCEAgBlCCABghhACAJghhAAAZgghYAgajYabALQjhIA5kgYP4QNMjRACIiJ4gOkhhIBZyIZOnuAhnIB2PoTcRyX497A2Z6FJ39uavr8VAL0dYLp8hrhAaaVJKNMTAnIgeIC5QQgBA8QOHoIMaCGEAABmCCEAgBlCCBhg0v+Pk6gYkgM8QggAYIYQAgCYIYSAHBiSA+aGCyH38AqPMV/2lWw7AAAzpbHSjJOkkpbpCQEAzBBCQE4MyQHxEUIAADOEEADADCEEADBDCAHTwPNCQFyEEADADCEEADBDCAHTxJAcEE8SQv4B1fsyvKvVNwAAMH3NDEkKmU9L0Do9IQCAGUIImAGG5IA4CCEAgBlCCABghhACZoghOWD2CCEAgBlCCABghhACZoEhOWB2CCEAgJkR/4dc+GuuqwwAwFxIQib5picEzBJDcsDMEUIAADOEEADADCEERMCQHDAzhBAAwAwhBAAwQwgBkTAkB0wfIQQAMONDKPwB52bholl2f925GgAAM5BkiGaJ//ZCmZ4QEBFDcsD0EEIAADOEEADADCEEADBDCAGR8bwQkB8hBAAwQwgBAMwQQsAcYEgOyIcQAgCYaYVQ+MvNXYaL+H/LAQDqqpkpSd6kZXpCwBxhSA4YjBACAJghhAAAZgghYA4xJAf0RwgBAMwQQgAAM4QQMMcYkgOmRggBAMwkIZR9U6ovuctw4b8AAJgZzZBWurQnCj0hYAgYkgN6I4QAAGYIIQCAGUIIGBKG5IBuhBAAwAwhBAAwQwgBQ8SQHNCOEAIAmCGEAABmmiHkBgn0IgwXNOvZOQAA05UGin77WahP0hMCho3nhYAWQggAYIYQAgCYIYQAAwzJAR4hBAAwQwgBAMwQQoARhuQAQggAYGik+Sai5qXK1FuNAADMWFvG+G96QoAlhuRQd4QQAMAMIQQAMEMIAcYYkkOdEUIAADOEEADADCEEFABDcqgrQggAYIYQAgCYGXGDAJ0jAZm6L8YfKgDQjiE5VFnbr3emTE8IAGCGEAIAmCGEgAJhSA51QwgBAMwQQgAAM4QQUDAMyaFOCCEAgBlCCABghhACAJhxIeRHoPVysvVGVjcuHX9sGsBgPC+Eakl/n5N5+N1OL+kJAQDMEEIAADOEEFBQDMmhDgghAIAZQggAYIYQAgqMITlUHSEEADBDCAEAzCQhFN4y1Oz1Z9+w2rwAYIQhOZSd/w1OLsOvcrOeoCcEADBDCAEAzBBCQAkwJIeqIoQAAGYIIQCAGUIIKAmG5FBFhBAAwAwhBAAwQwgBJcKQHKqmPYSav9/tn5oQ/9ceAFArIUja8iSp0BMCAJghhICSYUgOVUIIAQDMEEIAADOEEFBCDMmhKgghAIAZQggAYIYQAgCYGfHvHPLjy81iGG4OMwAFxPNCKBv/G5tcZn536QkBAMwQQgAAM4QQUGIMyaHsCCEAgBlCCABghhACSo4hOZQZIQQAMEMIAQDMEEJABTAkh7LyIZT5/W0VtZT5N98AAMxQV5YkDdpGTwgAYIYQAiqCITmUESEEADBDCAEAzBBCQIUwJIeyIYQAAGYIIQCAGUIIqBiG5FAmhBAAwMyI/s3k/25qldolbb2aAQDIrT1jfGmSnhBQRQzJoSwIIQCAGUIIAGCGEAIAmCGEgIrieSGUASEEADBDCAEAzBBCQIUxJIeia4VQ5nfVFeP/7gIA6ijNE50nUzZe6AkBAMwQQkDFMSSHIiOEAABmCCEAgBlCCKgBhuRQVIQQAMAMIQQAMEMIATXBkByKiBACAJhpD6HMH0quqBfx/3gCANRNyJLOSKEnBNQIQ3IoGkIIAGCGEAIAmCGEgJphSA5FQggBAMwQQgAAM4QQUEMMyaEoCCEAgJlmCLX+LtKSr8X/WwkAUFftmZLUkm96QkBNMSSHIiCEAABmCCEAgBlCCABghhACaoznhWCNEAIAmCGEAABmCCGg5hiSgyVCCABgJgmh1l9BrtSsxv/rCABQR9k80XIyhSZ6QgAYkoMZQggAYIYQAgCYIYQAOHMxJAcMQggBiErDLJ2AQQghALNG8GCmCCEATdMJEYIHMRBCAHIjeBBbY9Wq1e7XqfmLpXP9cnW3QFatOkJuuukmdwUA1db5/p5m4GzfLrJpk8jjj4ts2eLbdNnYmMjy5SIHHyzynOeILFzolwHBunXrZMOGB5JfLv/75SZfIYQA9PHzn4vccYfI3Xf7SQNIp/HxsEKwbJkPopUrRY46SmTtWpFTThE5+eSwAuqMEAKQ35/+JPLNb4rccIPIz34WGmfg8MNFTjtN5BWvEHn960VWrAgLUDf9QojnhAB4Dz8s8rGPibzkJSIf+cjsAkhpmF17rci73iXypjeJfP7zItu2hYWARwgBEPnyl/3Q2WWXifzlL6ExoptvFvnAB0Te/GaRH/4wNAKEEFBv2vs5+2yR97xH5LHHQuMc+vGPfRBddJHInj2hEXVGCAF1pb2TV75S5Ec/Cg1D8uSTIldcIXLuuSJ/+ENoRF0RQkAdfetbIuecI7J+fWgwcN11IuedJ3LvvaEBdUQIAXXz7W+LXHCByK5docHQr34lcv75IvfcExpQN4QQUCc/+YnI+98vsnNnaCiAX/9a5MILeY6opkb0rUAi7g1BzVKrqu8YSpcAKLX77xe55JLhvABhum69VeSd7wwVVI3PkUySJMW0Rk8IqItLL/XDX0X19a+LfO5zoYK6IISAOrjqKn+SL7qLLxbZsCFUUAeEEFB1elL/yldCpeD0uSodMkRtEEJA1X3nOyK33x4qJXD11SK33BIqqDpCCKgy/fy2738/VEpEhw9RC4QQUGX6aQj6Euiy+d73RH73u1BBlRFCQJXpS5/LSP+Bnv4rCVQeIQRU1Z13ljeEFCFUC4QQUFU6nPXQQ6FSQnfdJfL734cKqsqHUMdHIrRXOxYCKIeyf0L1o4/6fymO6tA4SaZsqtATAqrqj38MhRLjg00rjxACqmjr1mJ+Rtx0bd4cCqgqQgiooi1bfBCV3eOPhwKqihACqmjbNh9EZbdjh8j+/aGCKiKEgKpqNEKhxCb1WWxeHFVlhBBQRRpAhBBKgBACquiAA0TmzQuVElu4sBq3A1MihIAqOuQQP5Xd8uWhgKrqGULNTrzrBVegSw/UTVVC6OCDQwGV0CNO6AkBVTSSPLRXrgyVEjviiFBAVRFCQFUdd1wolNTixSJHHRUqqCpCCKiqsofQ2rV+QqURQkBVrVsn8tKXhkoJnXaayLOeFSqoKkIIqKrRUZFXvzpUSkbf46QhhMojhIAqO+us5FFewoe5hqf25FB5hBBQZaecIvK2t4VKibz+9SJLl4YKqowQAqru7W8PhZJ42ct8CKEWCCGg6vS5lfe9L1RK4IILRA49NFRQda0Qcp+O4D8osP3jAvnwQKD0Lr1U5PDDQ6XAzjtP5NxzQwV1QE8IqIMlS0Q+9alQKaiTThL50IdCBXVBCAF18cY3ilx2WagUjIbkJZeU/w22mDZCCKiTiy4SufDCUCmQyy8Xee1rQwV1QggBdfPlL4u8+92hUgBXXinynveECuqGEALq6Etfsn/+RT8V4atfFXnve0MD6ogQAurqM58R+cIXbP5nz6pVIjfe6F+OjVojhIA60/cPXX21yOteFxqGQIPn9ttFTj89NKDOCCGg7l7zGpFrrxX59KdFTj45NM6BV71K5Ac/8ENwBx0UGlF37SHE+1KBelq4UOTDHxb51rd8GL385cnZIcLfqPPni5x9tsh114n89Ke8Aq7ONF+6MmZSGkesWj0pk/odJm1O5s225GvVqlVy8003+esAqL7Nm0VuvVXktttE7rxT5A9/EHn00bBwgMMO8+/3OfVUkTPO8B+iilo7fd062XD/Bmk0Gm7SF6X4clIkhAD0tX27D6E//lFk0yaRrVv9tH+/f4Wb/t+iQw7xk340kAbQmjXhygAhBAAw1C+EeGECAMAMIQQAMEMIAQDMEEIAADOEEADADCEEADDTDCF9abbnS816awEAALPSGSn0hAAAZgghAIAZQggAYIYQAgCYIYQAAGYIIQCAGUIIAGCGEAIAmCGEAABmXAjpO1gbWmjiYxIAAHNFMyaZkm96QgAAM4QQAMAMIQQAMEMIAQDMEEIAADOEEADADCEEADBDCAEAzLgQ0jeq8vZUAMCw0RMCAJghhAAAZgghAIAZQggAYIYQAgCYIYQAAGYIIQCAGUIIAGCGEAIAmHEhxKclAADmlH40T1OoJDN6QgAAM4QQAMAMIQQAMEMIAQDMEEIAADOEEADADCEEADBDCAEAzCQhNNVbVXkLKwAgkl6RkrTREwIAmCGEAABmCCEAgBlCCABghhACAJghhAAAZgghAIAZQggAYIYQAgCYSUKo7X+uZrT+/SoAAPG0Pj6BnhAAwAwhBAAwQwgBAMwQQgAAM4QQAMAMIQQAMEMIAQDMEEIAADNJCPFvvAEAc2yKDz6gJwQAMEMIAQDMEEIAADOEEADADCEEADBDCAEAzBBCAAAzhBAAwAwhBAAwQwgBAIbGf3BC6+MTCCEAgBlCCABghhACAJghhAAAZgghAIAZQggAYIYQAgCYIYQAAGYIIQCAmSSEMu9fbV0AADCHfNbQEwIAmCGEAABmCCEAgBlCCABghhACAJghhAAAZgghAIAZQggAYKYZQpNh7jV43yoAYE40oyUp0BMCAJghhAAAZgghAIAZQggAYKYZQv6Jol6vRAgvUgAAYDY0TDoCxYWQa3MX/jVyrToAALOjcdK7O9PoHI7LrBRes60te/ftk82bN/sGAABy0uzYu3dfqHXLhFAmgHxspRcyvntc7lu/3pUBAMhLs2P3+O5QCzmTzEKp+4UJ6QKVlsf3jMv6++4LNQAA8tHs2DO+x5V9poRkCTMfQr2SJ7Pirp275JprrpWHH37YtwEAMIBmhmbHrl272nMmVPRypFVMLt1ML3w9nU1MTMijjz4qV37xi74BAIABNDM0OzRDnCRTQqwkfGX0oIMPuiRU27QCydMxva1btsqGDRtk7dq1snjx4rAEAIAW7QFdfvkVcuNNN8rWrVtdW0NDJZnczAVQKK9avWYyIZJM7ktfFTdVObFkyWI59NBD5a1veYusWbNGjjzySFmxYoVfCACoJX0V3H333Sfr16+Xq6+5xvWAdmzf4Re2BY8PH9eShtBUoePCqUf72Ng8OfCZB8r8BfPlgAUHyOjoSLLErdqhq6HL4DUSuVbKI86GomxluDc8imL9GIp138TjHp3FEOlQCnSLggFHVLjbHWdL/sQfQ8eGkqq26Muwx8d3y/iePe45oImJvT5k3AohcJplX3ctLoSSB/TUoeMWu7l++e9Mu79ozrNc2yC5VomznTzi7av/SpEOd7i3e5gKdjil4x7g5eFOTjHk2MzgVYZ5LHH25Ya6YpjJMSdV1xaCxZf93A/BpW3Z5a1yY7UOxyXb8aGip6Lkyze0ym6uy12prdw1z3DrxZBjM5377ina4QxnX7n2k0ekzeQR7Zhhzp0siiTH4eQ74gFrRbrZ0e6/XLc710oDzWQ77jruOztPLrNtWk/b9TpuYSi3hZCeQnzFn0z0u6vcsVy/fKP7zgpr95drlWJtJ49c+xok0rHk2dAQd1VJUX7eCf+wLJFIh5tvMznWGtLdF+3nlOsmxbndc7YdV01ak7lb1pxn23zZ1bTsimH56jVHJtmiD6DkYeRm+nCauuy/W3N33UxblmuLIcdmcu0r2uEMZ1/DvP/yGbyhaLsqkmHeKPfoLIZ4hxJpS9E2E2FDOTYRZT8q1r7m6phDqHQNvbllvt53WE5DqDtsdOYufZubJwX3HeZhPb9+uqyDv3JfYSuzl2MzufYV7XAGbCjSfvKIdh/nMcRdDVaog4koefAWxRAPxZ20YoiwmWEeS659DXE7nSu5WnLhtt8WMO1trqZlV8y0tUIoeci60HDV1rzXstDm50nJfft5Vlirv1yr5Fgpj4Lta5AiHYuKdjxVFOuucQ/M8ginlOGItKsoxzzMY8m1SqwDGrydrjWSBrd//XbXD0eTDRotZ9pcLbT5ENLTi3sQhXkIGR886Ty7LCm47x7zrI5qL13X6SXHKnnk2lcO6f0yK5FuUx6xbvcwjzmGaLe7YMLDuTwiHW602z2ku8+fkGcv1+3OtavBK81kMz5QOufhqDtCxzd1LEtDKHxPK3j8qqEerpfl1h0k1ypxtpNHrn3lMWAz0faTR9HumzyGuKtK8o/3ORdOJ8MRaVdRjrlIx6LCCb6fXHvKsVLXMSdV1+aak1Km7ufhGiF0XGs4XhdIa47UFyYkNRc03fM0jPx38uUb3bLmPNM+XekW+sq1yvT33VO0zUTY0DBvdx5D3FWRDPM+Dg/XahniTcp1/0U4nmg/p2ibiXO7Z3S7kqv43k24riuHuS5zK6Tz9mUiDfl/uZnd/3XR2MYAAAAASUVORK5CYII=;" vertex="1" parent="1">
          <mxGeometry x="1414.5" y="230" width="417" height="451" as="geometry" />
        </mxCell>
      </root>
    </mxGraphModel>
  </diagram>
</mxfile>
